<svg width="240" height="240" viewBox="0 0 240 240" fill="none" xmlns="http://www.w3.org/2000/svg">
<path d="M89.8596 47.4844C85.1721 49.4531 67.0315 57 56.9065 76.5469C54.7502 80.7187 44.6252 100.266 52.0783 117.516C61.969 140.391 92.0627 134.812 105.891 156.328C117.75 174.844 93.1408 193.031 103.735 215.062C109.266 226.547 122.016 236.156 133.781 237.047C170.578 239.812 236.672 160.547 209.813 98.3437C190.219 53.1562 127.781 31.6875 89.8596 47.4844Z" fill="url(#paint0_linear_2529_953)"/>
<path d="M164.859 83.0156L97.125 57.8906C95.0625 57.1406 92.8125 58.1718 92.0625 60.2343L46.3125 183.375C45.5625 185.437 46.5937 187.687 48.6562 188.437L116.391 213.562C118.453 214.312 120.703 213.281 121.453 211.219L167.203 88.0312C167.953 86.0156 166.922 83.7656 164.859 83.0156Z" fill="#2D548D"/>
<path opacity="0.09" d="M124.266 146.109C122.578 146.109 120.844 146.062 119.063 145.969C92.7658 144.516 71.297 132.797 61.6408 114.656C46.2189 85.6875 61.3595 45.3281 84.5626 32.625C96.2814 26.1562 106.453 26.3437 112.922 27.6562C123.985 29.8594 132.141 34.9687 135.891 42C139.922 49.5469 137.766 56.625 135.469 64.0781C133.406 70.7812 131.297 77.6719 133.828 85.125C136.078 91.7812 141.938 93.8437 148.172 96.0469C154.5 98.2969 161.063 100.594 164.578 107.859C168.281 115.547 167.813 126.047 163.547 132.375C157.735 140.812 142.36 146.109 124.266 146.109ZM105.61 27.4687C99.8439 27.4687 92.672 28.7812 84.8439 33.0937C61.8751 45.7031 46.8751 85.7344 62.1564 114.422C71.7189 132.422 93.047 144 119.156 145.453C139.219 146.578 156.891 141.187 163.125 132.094C167.297 125.953 167.766 115.641 164.11 108.141C160.688 101.062 154.266 98.8125 148.031 96.6094C141.703 94.3594 135.703 92.25 133.36 85.3594C130.781 77.7187 132.938 70.7344 135 63.9375C137.25 56.5781 139.406 49.5937 135.469 42.2344C131.813 35.3437 123.75 30.3281 112.875 28.1719C110.766 27.75 108.328 27.4687 105.61 27.4687Z" fill="#AAAAD5"/>
<path opacity="0.2" d="M148.453 76.9219L140.953 81.9375L75.4688 125.906L65.1094 132.891L79.3594 94.4062L89.7656 87.4219L113.25 71.625L120.75 66.6094L148.453 76.9219Z" fill="#EEEDF3"/>
<path opacity="0.2" d="M163.359 82.4531L155.859 87.4688L67.7813 146.625L57.375 153.563L62.4375 140.016L72.7969 133.078V133.031L146.109 83.8594L153.609 78.7969L163.359 82.4531Z" fill="#EEEDF3"/>
<path d="M164.859 83.0156L163.359 82.4531L153.609 78.8437L148.453 76.9218L120.75 66.6562L97.1251 57.8906C95.1094 57.1406 92.8126 58.1718 92.0626 60.2343L79.3594 94.4531L65.0626 132.937L62.3907 140.109L57.3751 153.656L46.3126 183.469C46.1719 183.844 46.1251 184.219 46.0782 184.594C45.9376 186.281 46.9688 187.922 48.6563 188.531L61.2188 193.219L70.6876 196.734L95.7188 206.016L104.859 209.391L116.391 213.656C118.406 214.406 120.703 213.375 121.453 211.359L166.359 90.4218L167.203 88.1718C167.953 86.0156 166.922 83.7656 164.859 83.0156ZM158.438 90.6562L157.5 93.2343L118.828 197.437C118.406 198.516 117.188 199.125 116.063 198.703L107.578 195.562L97.3126 191.766L76.1251 183.891L66.4219 180.281L58.6876 177.422C57.8438 177.094 57.3282 176.344 57.3282 175.5C57.3282 175.219 57.3282 174.937 57.4688 174.656L67.8751 146.672L72.8907 133.125L75.5626 125.953L89.8594 87.4687L97.1251 67.9218C97.5469 66.8437 98.7657 66.2343 99.8438 66.6562L113.344 71.6718L141.047 81.9375L146.203 83.8593L155.953 87.4687L157.219 87.9375C158.297 88.3593 158.859 89.5781 158.438 90.6562Z" fill="#EEEDF3"/>
<path d="M80.625 195.937C78.7031 195.234 77.7187 193.078 78.4219 191.156C79.125 189.234 81.2812 188.25 83.2031 188.953C85.125 189.656 86.1093 191.812 85.4062 193.734C84.6562 195.703 82.5 196.641 80.625 195.937Z" fill="#C9C7D9"/>
<path opacity="0.1" d="M125.906 10.3594L31.3595 41.6719C29.0627 42.4219 27.8439 44.9062 28.5939 47.1562L37.7814 74.8125C38.5314 77.1094 41.0158 78.3281 43.2658 77.5781L52.5939 74.4844L57.1408 72.9844C58.3127 73.7344 61.2189 75.7031 62.3908 76.4062C63.4689 77.0156 64.8752 76.5469 65.3908 75.4219C65.9533 74.1562 67.1252 70.875 67.5939 69.5625L90.5627 61.9219L137.813 46.2656C140.11 45.5156 141.328 43.0312 140.578 40.7812L131.391 13.125C130.641 10.8281 128.203 9.60937 125.906 10.3594Z" fill="#3F3F3F"/>
<path d="M125.906 3.04686L24.4687 36.6562C22.0312 37.4531 20.7187 40.125 21.5156 42.5625L31.3594 72.2344C32.1562 74.6719 34.8281 75.9844 37.2656 75.1875L47.25 71.8594L52.125 70.2656C53.3437 71.1094 56.4844 73.1719 57.75 73.9219C58.875 74.5781 60.4219 74.0625 60.9844 72.8437C61.5469 71.4844 62.8594 67.9219 63.3281 66.5625L87.9844 58.4062L138.703 41.5781C141.141 40.7812 142.453 38.1094 141.656 35.6719L131.812 5.99999C131.016 3.56249 128.391 2.24999 125.906 3.04686Z" fill="url(#paint1_linear_2529_953)"/>
<path d="M50.1561 50.5781C50.8592 49.3594 51.0467 47.8594 50.578 46.4062L49.7811 44.0156C48.8905 41.3437 46.078 39.7031 43.3592 40.5C40.5467 41.3437 39.0467 44.2969 39.9374 47.0625L40.7811 49.6875C41.2499 51.1406 42.328 52.2187 43.5936 52.7812C40.6874 54.9844 38.9999 58.5 39.2342 62.2031C39.328 63.6562 40.7811 64.5469 42.1405 64.125L57.9842 58.875C59.3436 58.4062 59.953 56.8125 59.203 55.5937C57.2342 52.4062 53.8124 50.5781 50.1561 50.5781Z" fill="white"/>
<path d="M88.3124 25.5469L68.1093 32.25C66.4686 32.8125 65.578 34.5938 66.0936 36.2344L69.3749 46.1719C69.9374 47.8125 71.7186 48.7031 73.3593 48.1875L75.328 47.5313C75.328 47.5313 79.078 50.0625 80.3436 50.8125C81.2811 51.3281 82.5468 50.9531 82.9686 49.9219C83.578 48.5625 85.078 44.2969 85.078 44.2969L93.5624 41.4844C95.203 40.9219 96.0936 39.1406 95.578 37.5L92.2968 27.5625C91.7343 25.875 89.953 24.9844 88.3124 25.5469Z" fill="white"/>
<path d="M71.6249 36.8437C70.9687 36.9844 70.2656 36.6562 70.0781 36C69.8437 35.2969 70.2187 34.5469 70.9218 34.3594L87.3281 28.9219C87.9843 28.6875 88.7812 29.0625 88.9687 29.7656C89.2031 30.4687 88.8281 31.2187 88.1249 31.4062L71.7187 36.8437C71.6718 36.8437 71.6718 36.8437 71.6249 36.8437Z" fill="#E2E1E1"/>
<path d="M73.0312 41.1562C72.3749 41.2969 71.6718 40.9687 71.4843 40.3125C71.2499 39.6094 71.6249 38.8594 72.3281 38.6719L88.7343 33.2344C89.3906 33 90.1874 33.375 90.3749 34.0781C90.6093 34.7812 90.2343 35.5312 89.5312 35.7187L73.1249 41.1562C73.1249 41.1094 73.0781 41.1562 73.0312 41.1562Z" fill="#E2E1E1"/>
<path d="M74.4843 45.4219C73.8281 45.5625 73.1249 45.2344 72.9374 44.5781C72.7031 43.875 73.0781 43.125 73.7812 42.9375L81.1874 40.5C81.8437 40.2656 82.5937 40.6406 82.828 41.3437C83.0624 42.0469 82.6874 42.7969 81.9843 42.9844L74.5781 45.4219C74.5312 45.4219 74.5312 45.4219 74.4843 45.4219Z" fill="#E2E1E1"/>
<path d="M130.406 30.2344C129.75 28.2187 128.438 26.5312 126.844 25.4062L126.141 23.25C124.922 19.6406 121.359 17.5312 117.703 18.0469L117.516 17.4375C117.281 16.7344 116.531 16.3594 115.828 16.5937C115.125 16.8281 114.75 17.5781 114.984 18.2812L115.172 18.8906C111.938 20.625 110.344 24.4687 111.516 28.0781L112.219 30.2344C111.609 32.1094 111.563 34.2187 112.219 36.2344L112.547 37.1719C112.688 37.6406 113.203 37.9219 113.672 37.7344L117.281 36.5156C117.328 36.7969 117.469 37.0781 117.797 37.1719C119.297 37.6875 120.984 37.6875 122.625 37.1719C124.266 36.6562 125.578 35.625 126.516 34.3125C126.703 34.0312 126.703 33.7031 126.563 33.4687L130.172 32.25C130.641 32.1094 130.922 31.5937 130.734 31.125L130.406 30.2344Z" fill="white"/>
<path d="M115.031 36.1875C115.734 38.2969 114.563 40.6406 112.453 41.3438C110.344 42.0469 108 40.875 107.297 38.7656C106.594 36.6563 107.766 34.3125 109.875 33.6094C112.031 32.9063 114.328 34.0313 115.031 36.1875Z" fill="#E83C3B"/>
<path opacity="0.1" d="M227.906 90L201.984 86.9062C200.859 86.7656 199.875 87.5625 199.734 88.6875L196.641 114.609C196.5 115.734 197.297 116.719 198.422 116.859L224.344 119.953C225.469 120.094 226.453 119.297 226.594 118.172L229.687 92.25C229.828 91.1719 229.031 90.1406 227.906 90Z" fill="#3F3F3F"/>
<path d="M230.953 116.344L200.672 112.734C200.156 112.688 199.781 112.219 199.875 111.703L203.484 81.4219C203.531 80.9063 204 80.5313 204.515 80.625L234.797 84.2344C235.312 84.2813 235.687 84.75 235.594 85.2656L231.984 115.547C231.937 116.016 231.469 116.391 230.953 116.344Z" fill="#F8AA09"/>
<path d="M203.109 109.406L206.109 84.3281C206.156 84 206.437 83.8125 206.719 83.8125L231.797 86.8125C232.125 86.8594 232.312 87.1406 232.312 87.4219L229.312 112.5C229.265 112.828 228.984 113.016 228.703 113.016L203.625 110.016C203.297 110.016 203.109 109.734 203.109 109.406Z" fill="#FBBA38"/>
<path d="M218.344 100.594L215.437 102.891C214.922 103.312 214.125 103.219 213.703 102.703C213.281 102.187 212.531 102.094 211.969 102.516L207.703 105.891C206.859 106.547 207.234 107.953 208.312 108.094L208.828 108.141L218.906 109.359L224.578 110.016C225.656 110.156 226.359 108.891 225.703 108.047L220.078 100.781C219.656 100.266 218.859 100.172 218.344 100.594Z" fill="#EE9F05"/>
<path d="M213.14 95.7187C213 96.8906 211.922 97.7344 210.75 97.5937C209.578 97.4531 208.734 96.375 208.875 95.2031C209.015 94.0312 210.093 93.1875 211.265 93.3281C212.437 93.4687 213.281 94.5469 213.14 95.7187Z" fill="#EE9F05"/>
<path opacity="0.1" d="M64.0313 163.547C63.0469 160.406 59.7188 158.672 56.5781 159.656L18.3281 171.75C15.1875 172.734 13.4531 176.063 14.4375 179.203L22.3125 204.094C23.2969 207.234 26.625 208.969 29.7656 207.984L33.5156 206.813C33.5156 206.813 40.5 211.641 42.9375 213.094C44.6719 214.125 47.0625 213.375 47.9063 211.5C49.0781 208.922 51.9844 200.953 51.9844 200.953L68.0157 195.891C71.1563 194.906 72.8906 191.578 71.9063 188.438L64.0313 163.547Z" fill="#3F3F3F"/>
<path d="M49.9688 153.984L8.95318 166.969C5.57818 168.047 3.75005 171.609 4.7813 174.984L13.2188 201.703C14.2969 205.078 17.8594 206.906 21.2344 205.875L25.2188 204.609C25.2188 204.609 32.7188 209.813 35.2969 211.359C37.1719 212.484 39.7501 211.641 40.6407 209.672C41.9063 206.906 45.0001 198.328 45.0001 198.328L62.2032 192.891C65.5782 191.813 67.4063 188.25 66.3751 184.875L57.9376 158.156C56.9532 154.781 53.3438 152.906 49.9688 153.984Z" fill="url(#paint2_linear_2529_953)"/>
<path d="M50.1096 167.812L16.8283 178.359C15.7502 178.687 14.5783 178.125 14.2502 177C13.9221 175.922 14.5315 174.75 15.6096 174.422L48.8908 163.875C49.969 163.547 51.1408 164.109 51.469 165.234C51.7971 166.312 51.1877 167.484 50.1096 167.812Z" fill="#EDB7D5"/>
<path d="M53.0625 177.234L19.7812 187.781C18.7031 188.109 17.5312 187.547 17.2031 186.422C16.875 185.344 17.4843 184.172 18.5625 183.844L51.8437 173.297C52.9218 172.969 54.0937 173.531 54.4218 174.656C54.75 175.688 54.1406 176.859 53.0625 177.234Z" fill="#EDB7D5"/>
<path d="M37.7812 192.375L22.7812 197.109C21.7031 197.438 20.5312 196.828 20.2031 195.75C19.875 194.672 20.4843 193.5 21.5625 193.172L36.5625 188.438C37.6406 188.109 38.8125 188.719 39.1406 189.797C39.4687 190.875 38.8593 192.047 37.7812 192.375Z" fill="#EDB7D5"/>
<path opacity="0.1" d="M133.828 107.438C133.266 105.047 130.078 104.531 128.766 106.641L123.516 115.125L120.563 102.797C119.953 100.313 117.469 98.7656 114.984 99.375L81.0938 107.438C78.6094 108.047 77.0625 110.531 77.6719 113.016L85.7344 146.906C86.3438 149.391 88.8281 150.938 91.3125 150.328L125.203 142.266C127.688 141.656 129.234 139.172 128.625 136.688L125.672 124.359L134.156 129.609C136.266 130.922 138.891 129 138.281 126.609L133.828 107.438Z" fill="#3F3F3F"/>
<path d="M132.797 97.4062L127.172 106.547L124.031 93.3281C123.375 90.6562 120.703 89.0156 118.031 89.625L81.6563 98.2968C78.9844 98.9531 77.3438 101.625 77.9532 104.297L86.625 140.672C87.2813 143.344 89.9532 144.984 92.625 144.375L129 135.703C131.672 135.047 133.313 132.375 132.703 129.703L129.563 116.484L138.703 122.109C140.953 123.516 143.766 121.453 143.156 118.875L138.234 98.2968C137.625 95.7187 134.203 95.1562 132.797 97.4062Z" fill="#E83B5B"/>
<path d="M98.8594 107.203L112.172 115.359L103.969 128.672" fill="white"/>
<path d="M157.886 159.938L102.571 168.749L107.548 199.994L162.864 191.183L157.886 159.938Z" fill="#E83C3B"/>
<path d="M132.703 180L157.875 159.984L102.563 168.797L132.703 180Z" fill="#EE7375"/>
<path d="M169.125 213.609H200.766C201.703 213.609 202.5 212.812 202.5 211.875C202.5 210.938 201.703 210.141 200.766 210.141H169.125C168.187 210.141 167.391 210.938 167.391 211.875C167.391 212.859 168.141 213.609 169.125 213.609Z" fill="#E2E2E1"/>
<path d="M179.578 206.25L178.078 197.109L182.203 195.844L182.859 205.594L179.578 206.25Z" fill="#D7DDE9"/>
<path d="M183 204.609C183.281 204.656 183.516 204.75 183.75 204.937C185.203 206.156 189.656 208.312 191.906 208.641C194.344 209.016 194.484 210.187 191.016 210.187C187.594 210.187 185.062 209.859 183.562 209.906C182.016 209.953 182.437 210.187 178.687 210.187C175.781 210.187 176.719 206.484 177.75 204.797C178.078 204.281 178.5 204 179.109 204.047L183 204.609Z" fill="#ED9558"/>
<path d="M166.312 197.719L172.031 190.453L175.734 192.656L169.031 199.688L166.312 197.719Z" fill="#D7DDE9"/>
<path d="M169.875 199.125C170.016 199.359 170.156 199.594 170.156 199.875C170.25 201.75 171.703 206.625 173.437 208.172C175.172 209.766 174.047 210.141 171.234 208.828C168.141 207.375 167.437 204.234 166.359 203.156C165.281 202.078 165.375 202.5 162.844 199.734C160.875 197.625 164.203 195.797 166.172 195.375C166.781 195.234 167.25 195.375 167.625 195.891L169.875 199.125Z" fill="#ED9558"/>
<path d="M163.735 43.2188C163.735 43.2188 162.61 50.7188 164.766 54.1875C166.922 57.6562 167.25 58.1719 167.25 58.1719" fill="#ED8C61"/>
<path d="M169.266 61.5C168.656 61.875 167.953 62.0625 167.297 62.0625C165.985 62.0625 164.672 61.4062 163.969 60.1406C163.922 60.0937 163.547 59.4375 161.531 56.25C160.125 54 159.656 50.9531 159.61 48.2812C159.516 45.6562 159.797 43.4062 159.938 42.6562C160.266 40.5469 162.235 39.0469 164.391 39.375C166.5 39.7031 168 41.6719 167.672 43.8281C167.485 44.9531 167.438 46.2656 167.438 47.4844C167.438 48.75 167.531 49.9687 167.719 50.8594C167.813 51.375 167.953 51.8437 168.141 52.125C170.344 55.6406 170.672 56.2031 170.672 56.2031C171.75 58.0312 171.141 60.4219 169.266 61.5Z" fill="#F6AD86"/>
<path d="M154.875 104.437C155.672 93.2344 151.922 65.4375 150 54.375C149.719 52.6875 150.985 51.1406 152.719 51.1406H175.735C176.953 51.1406 178.078 51.9844 178.406 53.1563C181.031 63.1875 182.719 104.391 182.719 104.391H154.875V104.437Z" fill="#E8E8E8"/>
<path d="M192.891 81.1406C192.516 79.0312 189.938 73.6406 187.078 68.0156C184.031 62.0625 180.609 55.7812 179.016 52.9687C178.125 51.375 176.109 50.8125 174.516 51.6562C172.922 52.5468 172.359 54.5625 173.203 56.1562C175.641 60.5625 178.125 65.2031 180.328 69.375C182.813 74.1562 185.203 77.0625 186.188 79.4062C184.406 80.9531 179.953 81.0937 176.438 80.8593C175.453 80.7656 171.703 80.4843 169.219 82.7812C168.234 83.6718 167.109 85.3125 167.203 87.8906C167.297 89.6718 167.531 90.375 169.125 91.1718C169.781 91.5 170.625 91.5468 171.328 91.5C173.156 91.2656 173.297 90.2812 173.297 88.1718C173.297 86.6718 174.094 85.1718 174.094 85.1718C174.094 85.1718 179.438 86.4843 183.891 87.0468C188.344 87.6093 190.172 86.7187 191.813 84.8906C192.75 83.8125 193.125 82.4531 192.891 81.1406Z" fill="#F6AD86"/>
<path d="M156.094 122.531C156.094 122.531 152.719 116.344 154.875 104.438H182.672C182.672 104.438 183.047 113.484 182.438 122.531H156.094Z" fill="#3A63A9"/>
<path d="M187.031 68.0156L183.797 68.6719L180.328 69.375C178.172 65.2031 175.64 60.5156 173.203 56.1562C172.312 54.5625 172.922 52.5469 174.515 51.6562C176.109 50.7656 178.125 51.375 179.015 52.9687C180.562 55.7812 183.984 62.0625 187.031 68.0156Z" fill="#ED8C61"/>
<path d="M155.766 53.7656C155.344 51.9844 153.516 50.9062 151.781 51.375C143.813 53.3437 138.281 55.125 134.438 56.7656C125.578 60.5156 125.672 63.2812 125.672 64.6875C125.719 66.2812 126.047 69.4219 145.125 76.3594C145.125 76.9219 144.516 79.0781 144.141 79.7812C143.25 81.375 144.188 82.9219 145.125 84.4687C145.453 84.9844 146.203 85.6406 147.094 85.6406C148.266 85.6406 149.719 84.1406 149.906 82.9219C150.609 78.4687 150.516 75.8437 150.281 75.3281C150.281 75.2812 150.234 75.2344 150.234 75.1875C150.141 75.0469 150.094 74.9062 150 74.7656C149.953 74.6719 149.859 74.625 149.813 74.5312C149.719 74.4375 149.672 74.3437 149.578 74.2969C149.438 74.1562 149.297 74.0625 149.156 73.9687C149.109 73.9687 149.109 73.9219 149.063 73.9219C148.828 73.7812 148.594 73.6406 148.359 73.5469C141.891 70.875 135.844 66.5625 133.172 64.6875C134.109 64.1719 135.422 63.5156 137.063 62.9062C141.141 61.2656 147.141 59.3437 153.281 57.8437C155.109 57.3281 156.188 55.5469 155.766 53.7656Z" fill="#F6AD86"/>
<path d="M187.547 66.5625L183.094 67.4063L179.625 68.0625L176.672 68.625C172.875 61.1719 171.984 59.4844 171.844 56.9531C171.703 54.0938 172.453 52.6406 174.328 51.6094C176.203 50.5781 178.547 51.2344 179.578 53.1094C179.672 53.25 183.703 59.0156 187.547 66.5625Z" fill="#E8E8E8"/>
<path d="M199.641 159.281C199.219 162 197.766 164.953 195.703 168.563C192.235 174.563 186.938 181.266 182.157 186.844C178.828 190.734 175.781 194.109 173.86 196.406C173.016 197.391 172.36 198.188 171.985 198.703L168.047 193.641C169.5 191.578 170.86 188.813 172.547 186.234C172.594 186.188 172.641 186.094 172.688 186.047C175.875 181.219 179.297 175.781 182.016 170.813C182.11 170.625 182.203 170.484 182.297 170.297C185.203 165.047 187.36 160.406 187.782 157.688C188.532 152.859 181.266 137.766 174.094 124.453C173.297 122.906 172.453 121.406 171.657 119.953C171.375 119.438 171.235 118.922 171.188 118.359C171 115.922 172.781 113.109 174.985 111.891C177.656 110.391 181.125 109.641 182.625 112.313C185.672 117.844 201.469 147.422 199.641 159.281Z" fill="#3A63A9"/>
<path d="M182.156 186.844C178.828 190.734 175.781 194.109 173.859 196.406C173.531 193.688 173.203 190.734 172.875 187.734C172.828 187.172 172.734 186.562 172.688 186C175.875 181.172 179.297 175.734 182.016 170.766C182.203 175.687 182.203 181.453 182.156 186.844Z" fill="#2D548D"/>
<path d="M181.453 160.781C180.094 149.672 170.766 119.812 169.312 116.531C168.094 113.719 161.344 113.109 158.531 114.375C155.719 115.594 154.453 118.875 155.672 121.687C159.422 130.219 170.062 153.047 171.141 161.109C171.75 165.937 172.594 175.641 174.094 183.937C175.172 189.703 176.25 195.328 177.047 199.406C177.75 202.969 177.75 202.312 177.797 202.641L184.453 201.609C184.453 201.609 183.047 173.906 181.453 160.781Z" fill="#3A63A9"/>
<path d="M153.328 57.75C147.187 59.25 141.187 61.1719 137.109 62.8125L134.391 56.7187C138.234 55.125 143.766 53.2969 151.734 51.3281C153.516 50.9062 155.297 51.9844 155.719 53.7187C156.187 55.5469 155.109 57.3281 153.328 57.75Z" fill="#ED8C61"/>
<path d="M151.828 51.2344C153.938 50.9062 155.485 51.9375 156.047 54C156.61 56.0625 155.203 57.6562 153.328 58.7344C151.078 60.0469 150.281 60.3281 140.766 63.6094L135.469 56.2969C147.656 51.5625 148.266 51.75 151.828 51.2344Z" fill="#E8E8E8"/>
<path d="M167.672 50.8594C167.485 50.8594 167.297 50.8594 167.156 50.8594C164.297 50.8594 161.672 49.9219 159.61 48.2812C159.516 45.6562 159.797 43.4062 159.938 42.6562C160.266 40.5469 162.235 39.0469 164.391 39.375C166.5 39.7031 168 41.6719 167.672 43.8281C167.485 44.9531 167.438 46.2656 167.438 47.4844C167.344 48.7031 167.438 49.9219 167.672 50.8594Z" fill="#ED8C61"/>
<path d="M178.688 36.9844C177.141 44.1563 173.156 49.4063 166.266 49.4063C159.422 49.4063 155.109 44.2031 153.844 36.9844C152.719 30.2344 159.422 23.625 166.266 23.625C173.203 23.5781 180.141 30.2813 178.688 36.9844Z" fill="#F6AD86"/>
<path d="M179.625 202.687L179.578 202.5C177.703 190.875 174.844 173.344 173.438 162.281C172.406 154.219 162.422 130.312 158.672 121.781C158.625 121.734 158.625 121.641 158.625 121.594C158.625 121.547 158.625 121.547 158.578 121.5C157.969 119.859 156.141 113.766 157.875 104.156L158.438 104.25C156.703 113.719 158.531 119.672 159.094 121.312C159.094 121.359 159.141 121.406 159.141 121.453C159.141 121.5 159.141 121.547 159.188 121.594C162.938 130.125 172.922 154.125 173.953 162.234C175.406 173.25 178.219 190.828 180.094 202.453L180.141 202.641L179.625 202.687Z" fill="#658BC1"/>
<path d="M170.719 51.1875C170.719 52.875 170.062 55.6875 165.656 55.6875C162.469 55.6875 158.437 54.3281 156.937 51.75L156.609 51.1875H170.719Z" fill="#C8D6DB"/>
<path d="M157.922 51.1875C159.094 53.25 162.609 54.5625 165.656 54.5625C168.703 54.5625 169.594 53.0625 169.594 51.1875H157.922Z" fill="#F6AD86"/>
<path d="M174.609 85.8281C174.609 85.7813 174.797 83.9063 172.828 81.1875L174.656 80.1094C176.953 83.5312 176.719 85.9688 176.719 86.1094L174.609 85.8281Z" fill="#82AACE"/>
<path d="M173.203 80.1563C174.234 79.6875 175.594 79.9219 176.297 80.6719C176.953 81.4219 176.672 82.4531 175.594 82.9219C174.562 83.3906 173.203 83.1563 172.5 82.4063C171.844 81.6094 172.125 80.625 173.203 80.1563Z" fill="#4E7DB0"/>
<path d="M178.406 27.7969C174.656 21.75 165.422 21.2813 163.641 21.375C162.703 21.4219 160.641 21.9844 159.75 23.3906C159.703 22.4063 159.75 21.5156 159.75 21.5156C158.953 22.5 158.813 23.3438 158.953 24C158.391 23.25 158.016 22.4531 158.016 22.4531C157.875 23.4844 158.156 24.0938 158.578 24.4219C156.047 25.0313 152.813 28.5938 153.938 35.9063C154.406 39.0938 161.625 36.6563 163.641 33.4688C165 35.6719 167.719 36.1406 167.719 36.1406C166.781 35.2031 165.938 33.7969 165.281 32.3906C169.125 34.7344 174.234 37.2656 174.844 38.8125C174.844 38.8125 175.969 36.3281 175.125 34.7344C175.125 34.7344 178.172 35.4844 178.547 38.5313C178.5 38.4375 182.391 34.2656 178.406 27.7969Z" fill="#424344"/>
<path d="M169.43 104.141L168.875 104.231L171.91 123.018L172.466 122.929L169.43 104.141Z" fill="#658BC1"/>
<path d="M171.609 119.438L171.516 118.875C171.516 118.875 172.688 118.687 173.297 117.797C173.672 117.281 173.766 116.625 173.672 115.875L171.75 103.969L172.313 103.875L174.234 115.781C174.375 116.719 174.234 117.516 173.766 118.125C173.016 119.25 171.656 119.438 171.609 119.438Z" fill="#658BC1"/>
<path d="M153.469 36.2344C152.906 37.4531 153 38.7656 153.516 39.8906C154.125 41.2031 156.047 41.1094 156.609 39.7969L158.203 36.2344C158.812 34.9219 157.594 33.4688 156.188 33.8438C155.016 34.2188 153.984 35.0625 153.469 36.2344Z" fill="#F6AD86"/>
<defs>
<linearGradient id="paint0_linear_2529_953" x1="224.628" y1="216.258" x2="-13.1863" y2="-2.20919" gradientUnits="userSpaceOnUse">
<stop stop-color="#6FC7DA"/>
<stop offset="0.3693" stop-color="#0D71B9"/>
<stop offset="0.7613" stop-color="#9E1460"/>
<stop offset="1" stop-color="#E7267A"/>
</linearGradient>
<linearGradient id="paint1_linear_2529_953" x1="124.597" y1="84.7444" x2="21.4884" y2="-24.6201" gradientUnits="userSpaceOnUse">
<stop stop-color="#6FC7DA"/>
<stop offset="1" stop-color="#9E1460"/>
</linearGradient>
<linearGradient id="paint2_linear_2529_953" x1="75.5403" y1="186.12" x2="16.8787" y2="179.704" gradientUnits="userSpaceOnUse">
<stop stop-color="#6FC7DA"/>
<stop offset="0.6927" stop-color="#9E1460"/>
<stop offset="1" stop-color="#E7267A"/>
</linearGradient>
</defs>
</svg>
